<svg width="12" height="13" viewBox="0 0 12 13" fill="none" xmlns="http://www.w3.org/2000/svg">
<mask id="mask0_44_35" style="mask-type:alpha" maskUnits="userSpaceOnUse" x="0" y="0" width="12" height="13">
<rect y="0.5" width="12" height="12" fill="#D9D9D9"/>
</mask>
<g mask="url(#mask0_44_35)">
<path d="M6.00005 11.5C5.37505 11.5 4.78963 11.3813 4.2438 11.1438C3.69797 10.9063 3.22297 10.5854 2.8188 10.1813C2.41463 9.77709 2.0938 9.30209 1.8563 8.75625C1.6188 8.21042 1.50005 7.625 1.50005 7C1.50005 6.375 1.6188 5.78959 1.8563 5.24375C2.0938 4.69792 2.41463 4.22292 2.8188 3.81875C3.22297 3.41459 3.69797 3.09375 4.2438 2.85625C4.78963 2.61875 5.37505 2.5 6.00005 2.5C6.62505 2.5 7.21047 2.61875 7.7563 2.85625C8.30213 3.09375 8.77713 3.41459 9.1813 3.81875C9.58547 4.22292 9.9063 4.69792 10.1438 5.24375C10.3813 5.78959 10.5 6.375 10.5 7C10.5 7.625 10.3813 8.21042 10.1438 8.75625C9.9063 9.30209 9.58547 9.77709 9.1813 10.1813C8.77713 10.5854 8.30213 10.9063 7.7563 11.1438C7.21047 11.3813 6.62505 11.5 6.00005 11.5ZM7.40005 9.1L8.10005 8.4L6.50005 6.8V4.5H5.50005V7.2L7.40005 9.1ZM2.80005 1.675L3.50005 2.375L1.37505 4.5L0.675049 3.8L2.80005 1.675ZM9.20005 1.675L11.325 3.8L10.625 4.5L8.50005 2.375L9.20005 1.675Z" fill="#1C1B1F"/>
</g>
</svg>
