<svg width="65" height="27" viewBox="0 0 65 27" fill="none" xmlns="http://www.w3.org/2000/svg">
<path d="M17.3412 5.07614C17.0669 4.5731 16.6896 4.1901 16.2094 3.92715C15.7292 3.66419 15.169 3.53272 14.5288 3.53272C13.82 3.53272 13.1912 3.69277 12.6424 4.01289C12.0936 4.33301 11.6649 4.79032 11.3562 5.38482C11.0475 5.97932 10.8932 6.66529 10.8932 7.44271C10.8932 8.243 11.0475 8.9404 11.3562 9.5349C11.6763 10.1294 12.1165 10.5867 12.6767 10.9068C13.2369 11.2269 13.8886 11.387 14.6317 11.387C15.5463 11.387 16.2951 11.1469 16.8782 10.6667C17.4613 10.1751 17.8443 9.49489 18.0272 8.626H13.9114V6.79105H20.3938V8.88324C20.2337 9.71783 19.8907 10.4895 19.3648 11.1984C18.8389 11.9072 18.1587 12.4788 17.3241 12.9133C16.5009 13.3363 15.5749 13.5478 14.5459 13.5478C13.3912 13.5478 12.3451 13.2906 11.4077 12.7761C10.4816 12.2502 9.7499 11.5242 9.21256 10.5981C8.68666 9.6721 8.42371 8.62028 8.42371 7.44271C8.42371 6.26514 8.68666 5.21333 9.21256 4.28728C9.7499 3.34979 10.4816 2.62381 11.4077 2.10934C12.3451 1.58343 13.3855 1.32048 14.5288 1.32048C15.8779 1.32048 17.0497 1.65203 18.0444 2.31513C19.039 2.9668 19.725 3.88713 20.1022 5.07614H17.3412Z" fill="#1C60E5"/>
<path d="M21.5527 8.6603C21.5527 7.69995 21.7413 6.84821 22.1186 6.10508C22.5073 5.36195 23.0275 4.79032 23.6792 4.39017C24.3423 3.99003 25.0797 3.78995 25.8914 3.78995C26.6002 3.78995 27.2176 3.93286 27.7435 4.21868C28.2809 4.5045 28.7096 4.86463 29.0297 5.29907V3.94429H31.4477V13.4449H29.0297V12.0558C28.721 12.5017 28.2923 12.8733 27.7435 13.1705C27.2062 13.4563 26.5831 13.5992 25.8743 13.5992C25.074 13.5992 24.3423 13.3935 23.6792 12.9819C23.0275 12.5703 22.5073 11.9929 22.1186 11.2498C21.7413 10.4953 21.5527 9.63208 21.5527 8.6603ZM29.0297 8.6946C29.0297 8.11153 28.9154 7.6142 28.6867 7.20262C28.4581 6.77961 28.1494 6.4595 27.7607 6.24227C27.3719 6.01362 26.9547 5.89929 26.5088 5.89929C26.0629 5.89929 25.6513 6.0079 25.274 6.22513C24.8968 6.44235 24.5881 6.76246 24.348 7.18548C24.1193 7.59705 24.005 8.08866 24.005 8.6603C24.005 9.23194 24.1193 9.73498 24.348 10.1694C24.5881 10.5924 24.8968 10.9183 25.274 11.1469C25.6628 11.3756 26.0743 11.4899 26.5088 11.4899C26.9547 11.4899 27.3719 11.3813 27.7607 11.1641C28.1494 10.9354 28.4581 10.6153 28.6867 10.2037C28.9154 9.78071 29.0297 9.27767 29.0297 8.6946Z" fill="#1C60E5"/>
<path d="M36.1935 11.5413H40.1378V13.4449H33.7926V1.47482H36.1935V11.5413Z" fill="#1C60E5"/>
<path d="M42.8814 2.81245C42.4583 2.81245 42.1039 2.68098 41.8181 2.41802C41.5437 2.14364 41.4065 1.80637 41.4065 1.40623C41.4065 1.00608 41.5437 0.674531 41.8181 0.411578C42.1039 0.137193 42.4583 0 42.8814 0C43.3044 0 43.6531 0.137193 43.9274 0.411578C44.2133 0.674531 44.3562 1.00608 44.3562 1.40623C44.3562 1.80637 44.2133 2.14364 43.9274 2.41802C43.6531 2.68098 43.3044 2.81245 42.8814 2.81245ZM44.0646 3.94429V13.4449H41.6638V3.94429H44.0646Z" fill="#1C60E5"/>
<path d="M45.8193 8.6946C45.8193 7.71138 46.0194 6.85393 46.4196 6.12223C46.8197 5.3791 47.3742 4.80747 48.083 4.40732C48.7919 3.99574 49.6036 3.78995 50.5182 3.78995C51.6958 3.78995 52.6676 4.0872 53.4335 4.68171C54.211 5.26478 54.7312 6.08793 54.9941 7.15118H52.4046C52.2674 6.7396 52.033 6.41948 51.7015 6.19083C51.3814 5.95074 50.9812 5.8307 50.501 5.8307C49.8151 5.8307 49.272 6.08222 48.8719 6.58526C48.4717 7.07686 48.2717 7.77998 48.2717 8.6946C48.2717 9.59778 48.4717 10.3009 48.8719 10.8039C49.272 11.2955 49.8151 11.5413 50.501 11.5413C51.4728 11.5413 52.1073 11.1069 52.4046 10.238H54.9941C54.7312 11.267 54.211 12.0844 53.4335 12.6903C52.6561 13.2963 51.6843 13.5992 50.5182 13.5992C49.6036 13.5992 48.7919 13.3992 48.083 12.999C47.3742 12.5874 46.8197 12.0158 46.4196 11.2841C46.0194 10.541 45.8193 9.67781 45.8193 8.6946Z" fill="#1C60E5"/>
<path d="M64.1739 20.0707L64.0156 21.0451H60.6093L60.7677 20.0707H64.1739ZM61.9248 18.5767H63.1387L62.1562 24.4758C62.1183 24.7112 62.125 24.8885 62.1765 25.0076C62.2279 25.124 62.3064 25.2038 62.4119 25.2471C62.5202 25.2877 62.6407 25.308 62.7733 25.308C62.8707 25.308 62.956 25.3013 63.0291 25.2877C63.1021 25.2742 63.1603 25.2634 63.2036 25.2553L63.2686 26.2581C63.1874 26.2851 63.0778 26.3122 62.9397 26.3393C62.8044 26.369 62.6393 26.3853 62.4444 26.388C62.125 26.3934 61.8368 26.3366 61.5797 26.2175C61.3225 26.0957 61.1304 25.9116 61.0032 25.6653C60.8759 25.4163 60.8448 25.1037 60.9098 24.7275L61.9248 18.5767Z" fill="black"/>
<path d="M54.6461 22.6041L54.0371 26.3068H52.8232L53.8626 20.0707H55.0278L54.8572 21.0857H54.9344C55.132 20.7528 55.4013 20.4876 55.7423 20.29C56.086 20.0897 56.492 19.9895 56.9603 19.9895C57.3825 19.9895 57.7371 20.0789 58.024 20.2575C58.3136 20.4334 58.5179 20.696 58.637 21.0451C58.7588 21.3943 58.7778 21.826 58.6939 22.3402L58.028 26.3068H56.8141L57.4515 22.4864C57.5246 22.0344 57.4651 21.6812 57.2729 21.4268C57.0834 21.1696 56.7816 21.0411 56.3675 21.0411C56.086 21.0411 55.8249 21.102 55.584 21.2238C55.3458 21.3456 55.1441 21.5242 54.979 21.7597C54.8166 21.9924 54.7057 22.2739 54.6461 22.6041Z" fill="black"/>
<path d="M48.1866 26.4326C47.5749 26.4326 47.0688 26.3014 46.6682 26.0388C46.2703 25.7736 45.9915 25.4014 45.8318 24.9224C45.6721 24.4406 45.6464 23.8762 45.7547 23.2294C45.8603 22.5906 46.0727 22.0276 46.3921 21.5404C46.7115 21.0532 47.1094 20.673 47.5857 20.3996C48.0648 20.1262 48.5939 19.9895 49.1731 19.9895C49.525 19.9895 49.8566 20.0477 50.1678 20.1641C50.4818 20.2805 50.7484 20.4632 50.9676 20.7122C51.1869 20.9612 51.3384 21.2847 51.4223 21.6825C51.509 22.0777 51.5063 22.5581 51.4142 23.1238L51.3452 23.5542H46.384L46.5261 22.6447H50.2937C50.3505 22.3254 50.3356 22.0425 50.249 21.7962C50.1624 21.5472 50.0136 21.351 49.8024 21.2075C49.594 21.0641 49.3315 20.9923 49.0148 20.9923C48.69 20.9923 48.3869 21.0776 48.1054 21.2481C47.8239 21.4186 47.5884 21.6365 47.399 21.9018C47.2122 22.1643 47.0945 22.435 47.0457 22.7138L46.9037 23.546C46.8333 24.0007 46.8455 24.3661 46.9402 24.6422C47.0376 24.9183 47.2081 25.1186 47.4517 25.2431C47.6953 25.3676 47.9998 25.4298 48.3652 25.4298C48.6007 25.4298 48.8186 25.3974 49.0189 25.3324C49.2219 25.2647 49.4019 25.1659 49.5588 25.036C49.7158 24.9034 49.8471 24.7383 49.9527 24.5407L51.0651 24.7478C50.9162 25.0861 50.7024 25.3825 50.4236 25.6369C50.1448 25.8886 49.816 26.0848 49.437 26.2256C49.0608 26.3636 48.644 26.4326 48.1866 26.4326Z" fill="black"/>
<path d="M34.8435 26.3068L35.8828 20.0707H37.048L36.8775 21.0857H36.9546C37.1441 20.742 37.4012 20.474 37.726 20.2819C38.0535 20.087 38.4243 19.9895 38.8384 19.9895C39.2498 19.9895 39.5814 20.087 39.8331 20.2819C40.0875 20.4767 40.254 20.7447 40.3325 21.0857H40.3974C40.5977 20.7501 40.8779 20.4835 41.2378 20.2859C41.5978 20.0883 42.0025 19.9895 42.4517 19.9895C43.012 19.9895 43.4424 20.1682 43.7428 20.5255C44.0459 20.88 44.138 21.4132 44.0189 22.1251L43.3206 26.3068H42.1026L42.7847 22.2387C42.8523 21.8138 42.7874 21.508 42.5898 21.3212C42.3922 21.1317 42.1337 21.037 41.8143 21.037C41.4192 21.037 41.0917 21.1588 40.8318 21.4024C40.572 21.6433 40.4123 21.9532 40.3528 22.3321L39.6829 26.3068H38.4771L39.1713 22.1616C39.2255 21.8206 39.1632 21.5486 38.9846 21.3456C38.8086 21.1399 38.5515 21.037 38.2132 21.037C37.9831 21.037 37.7598 21.0979 37.5433 21.2197C37.3295 21.3415 37.1468 21.5093 36.9952 21.7231C36.8436 21.937 36.7449 22.1833 36.6988 22.462L36.0574 26.3068H34.8435Z" fill="black"/>
<path d="M31.8491 23.7206L32.4581 20.0707H33.676L32.6367 26.3068H31.4431L31.6258 25.2268H31.5608C31.3659 25.5598 31.0899 25.8372 30.7326 26.0591C30.378 26.2784 29.9666 26.388 29.4984 26.388C29.0978 26.388 28.7581 26.3 28.4793 26.1241C28.2033 25.9455 28.007 25.6816 27.8906 25.3324C27.7743 24.9833 27.758 24.5515 27.8419 24.0373L28.5078 20.0707H29.7217L29.0843 23.8911C29.0166 24.3161 29.0802 24.6544 29.2751 24.9061C29.47 25.1578 29.7541 25.2837 30.1277 25.2837C30.355 25.2837 30.5905 25.2268 30.8341 25.1132C31.0777 24.9995 31.2929 24.8276 31.4796 24.5976C31.6691 24.3675 31.7922 24.0752 31.8491 23.7206Z" fill="black"/>
<path d="M22.4867 26.3068L23.526 20.0707H24.6993L24.5329 21.0614H24.5978C24.7657 20.7257 25.0106 20.4618 25.3327 20.2697C25.6548 20.0748 25.9985 19.9774 26.3639 19.9774C26.4424 19.9774 26.5317 19.9801 26.6319 19.9855C26.732 19.9882 26.8132 19.995 26.8755 20.0058L26.6806 21.1669C26.6346 21.1534 26.5507 21.1385 26.4289 21.1223C26.3071 21.1033 26.1812 21.0938 26.0513 21.0938C25.7671 21.0938 25.5032 21.1547 25.2596 21.2765C25.016 21.3956 24.8117 21.5621 24.6466 21.7759C24.4815 21.987 24.3745 22.2279 24.3258 22.4986L23.7006 26.3068H22.4867Z" fill="black"/>
<path d="M21.6116 20.0707L21.4532 21.0451H18.047L18.2053 20.0707H21.6116ZM19.3624 18.5767H20.5763L19.5938 24.4758C19.5559 24.7112 19.5627 24.8885 19.6141 25.0076C19.6655 25.124 19.744 25.2038 19.8496 25.2471C19.9578 25.2877 20.0783 25.308 20.2109 25.308C20.3083 25.308 20.3936 25.3013 20.4667 25.2877C20.5397 25.2742 20.5979 25.2634 20.6412 25.2553L20.7062 26.2581C20.625 26.2851 20.5154 26.3122 20.3774 26.3393C20.242 26.369 20.0769 26.3853 19.882 26.388C19.5627 26.3934 19.2744 26.3366 19.0173 26.2175C18.7602 26.0957 18.568 25.9116 18.4408 25.6653C18.3136 25.4163 18.2824 25.1037 18.3474 24.7275L19.3624 18.5767Z" fill="black"/>
<path d="M16.4208 21.5932L15.288 21.7881C15.2637 21.6446 15.2136 21.5093 15.1378 21.3821C15.0647 21.2549 14.9524 21.152 14.8008 21.0735C14.6493 20.9923 14.4476 20.9517 14.1959 20.9517C13.8468 20.9517 13.5409 21.0316 13.2784 21.1913C13.0185 21.351 12.8697 21.554 12.8318 21.8003C12.7966 22.0006 12.844 22.163 12.9739 22.2875C13.1038 22.4093 13.3325 22.5108 13.66 22.592L14.6182 22.8193C15.1703 22.9519 15.5655 23.159 15.8036 23.4405C16.0445 23.7193 16.1284 24.0819 16.0554 24.5285C15.9931 24.8993 15.8307 25.2282 15.5682 25.5151C15.3083 25.802 14.9754 26.0266 14.5694 26.189C14.1634 26.3514 13.7114 26.4326 13.2134 26.4326C12.5043 26.4326 11.9521 26.2824 11.557 25.982C11.1618 25.6816 10.9588 25.2566 10.948 24.7072L12.1497 24.5285C12.1714 24.8344 12.281 25.0658 12.4786 25.2228C12.6789 25.3771 12.9563 25.4542 13.3109 25.4542C13.7168 25.4569 14.0565 25.3716 14.3299 25.1984C14.6033 25.0252 14.7589 24.8154 14.7968 24.5691C14.8293 24.377 14.786 24.2173 14.6669 24.0901C14.5505 23.9629 14.3448 23.8654 14.0498 23.7978L13.0429 23.5663C12.4799 23.4337 12.0821 23.2199 11.8493 22.9249C11.6165 22.6298 11.538 22.259 11.6138 21.8125C11.6734 21.4471 11.8276 21.129 12.0766 20.8584C12.3284 20.585 12.6464 20.3725 13.0307 20.221C13.4151 20.0667 13.84 19.9895 14.3055 19.9895C14.9849 19.9895 15.4951 20.1357 15.8361 20.428C16.1772 20.7176 16.372 21.106 16.4208 21.5932Z" fill="black"/>
<path d="M5.38264 22.6041L4.77365 26.3068H3.55974L4.59908 20.0707H5.76428L5.59376 21.0857H5.6709C5.86848 20.7528 6.13779 20.4876 6.47882 20.29C6.82256 20.0897 7.22855 19.9895 7.6968 19.9895C8.11903 19.9895 8.4736 20.0789 8.7605 20.2575C9.0501 20.4334 9.25445 20.696 9.37355 21.0451C9.49534 21.3943 9.51429 21.826 9.43038 22.3402L8.76456 26.3068H7.55064L8.18805 22.4864C8.26113 22.0344 8.20158 21.6812 8.00941 21.4268C7.81995 21.1696 7.51816 21.0411 7.10405 21.0411C6.82256 21.0411 6.56137 21.102 6.32049 21.2238C6.0823 21.3456 5.88066 21.5242 5.71556 21.7597C5.55316 21.9924 5.44219 22.2739 5.38264 22.6041Z" fill="black"/>
<path d="M2.63489 17.9921L1.25452 26.3068H0L1.38037 17.9921H2.63489Z" fill="black"/>
</svg>
