<svg width="189" height="78" viewBox="0 0 189 78" fill="none" xmlns="http://www.w3.org/2000/svg">
<path d="M50.8883 14.8961C50.0831 13.4199 48.976 12.296 47.5669 11.5244C46.1578 10.7527 44.5139 10.3669 42.6351 10.3669C40.555 10.3669 38.7097 10.8366 37.0994 11.776C35.489 12.7154 34.2308 14.0574 33.325 15.802C32.4192 17.5465 31.9662 19.5595 31.9662 21.8409C31.9662 24.1894 32.4192 26.2359 33.325 27.9805C34.2644 29.7251 35.5561 31.0671 37.2 32.0065C38.8439 32.9459 40.7563 33.4156 42.937 33.4156C45.621 33.4156 47.8185 32.711 49.5296 31.302C51.2406 29.8593 52.3645 27.8631 52.9013 25.3133H40.8234V19.9286H59.8461V26.0682C59.3764 28.5173 58.3699 30.7819 56.8266 32.862C55.2833 34.9421 53.2871 36.6196 50.838 37.8945C48.4224 39.1358 45.7049 39.7565 42.6854 39.7565C39.2969 39.7565 36.2271 39.0016 33.476 37.4919C30.7584 35.9486 28.6113 33.8182 27.0344 31.1007C25.4911 28.3831 24.7195 25.2965 24.7195 21.8409C24.7195 18.3853 25.4911 15.2987 27.0344 12.5812C28.6113 9.83009 30.7584 7.69968 33.476 6.18994C36.2271 4.64665 39.2801 3.875 42.6351 3.875C46.5939 3.875 50.0328 4.84795 52.9516 6.79383C55.8705 8.70617 57.8834 11.4069 58.9906 14.8961H50.8883Z" fill="white"/>
<path d="M63.247 25.414C63.247 22.5958 63.8005 20.0963 64.9077 17.9156C66.0484 15.7349 67.5749 14.0574 69.4872 12.8831C71.4331 11.7089 73.5971 11.1218 75.9791 11.1218C78.0592 11.1218 79.8709 11.5411 81.4142 12.3799C82.991 13.2186 84.2491 14.2754 85.1885 15.5503V11.5747H92.2843V39.4546H85.1885V35.3783C84.2827 36.6867 83.0246 37.7771 81.4142 38.6494C79.8373 39.4881 78.0089 39.9075 75.9288 39.9075C73.5803 39.9075 71.4331 39.3036 69.4872 38.0958C67.5749 36.888 66.0484 35.1937 64.9077 33.013C63.8005 30.7987 63.247 28.2657 63.247 25.414ZM85.1885 25.5146C85.1885 23.8036 84.853 22.3442 84.182 21.1364C83.511 19.895 82.6052 18.9556 81.4645 18.3182C80.3238 17.6472 79.0992 17.3117 77.7908 17.3117C76.4824 17.3117 75.2746 17.6304 74.1674 18.2679C73.0603 18.9053 72.1544 19.8447 71.4499 21.086C70.7789 22.2938 70.4434 23.7365 70.4434 25.414C70.4434 27.0915 70.7789 28.5676 71.4499 29.8425C72.1544 31.0839 73.0603 32.04 74.1674 32.711C75.3081 33.382 76.5159 33.7175 77.7908 33.7175C79.0992 33.7175 80.3238 33.3988 81.4645 32.7614C82.6052 32.0904 83.511 31.151 84.182 29.9432C84.853 28.7018 85.1885 27.2257 85.1885 25.5146Z" fill="white"/>
<path d="M106.211 33.8685H117.786V39.4546H99.1654V4.32792H106.211V33.8685Z" fill="white"/>
<path d="M125.837 8.25325C124.595 8.25325 123.555 7.86743 122.717 7.09578C121.911 6.29059 121.509 5.30087 121.509 4.12662C121.509 2.95238 121.911 1.97944 122.717 1.20779C123.555 0.402597 124.595 0 125.837 0C127.078 0 128.101 0.402597 128.907 1.20779C129.745 1.97944 130.165 2.95238 130.165 4.12662C130.165 5.30087 129.745 6.29059 128.907 7.09578C128.101 7.86743 127.078 8.25325 125.837 8.25325ZM129.309 11.5747V39.4546H122.264V11.5747H129.309Z" fill="white"/>
<path d="M134.458 25.5146C134.458 22.6293 135.045 20.1131 136.22 17.9659C137.394 15.7852 139.021 14.1077 141.101 12.9334C143.181 11.7257 145.563 11.1218 148.247 11.1218C151.703 11.1218 154.555 11.9941 156.803 13.7386C159.084 15.4497 160.61 17.8653 161.382 20.9854H153.783C153.38 19.7776 152.693 18.8382 151.72 18.1672C150.78 17.4627 149.606 17.1104 148.197 17.1104C146.184 17.1104 144.59 17.8485 143.416 19.3247C142.242 20.7673 141.655 22.8306 141.655 25.5146C141.655 28.1651 142.242 30.2284 143.416 31.7046C144.59 33.1472 146.184 33.8685 148.197 33.8685C151.049 33.8685 152.911 32.5936 153.783 30.0438H161.382C160.61 33.0633 159.084 35.4621 156.803 37.2403C154.521 39.0184 151.669 39.9075 148.247 39.9075C145.563 39.9075 143.181 39.3204 141.101 38.1461C139.021 36.9383 137.394 35.2608 136.22 33.1136C135.045 30.9329 134.458 28.3999 134.458 25.5146Z" fill="white"/>
<path d="M188.321 58.8983L187.856 61.7577H177.86L178.325 58.8983H188.321ZM181.72 54.514H185.283L182.4 71.825C182.288 72.516 182.308 73.0362 182.459 73.3857C182.61 73.7272 182.84 73.9615 183.15 74.0886C183.468 74.2078 183.821 74.2673 184.21 74.2673C184.496 74.2673 184.747 74.2475 184.961 74.2078C185.176 74.1681 185.346 74.1363 185.473 74.1125L185.664 77.0552C185.426 77.1346 185.104 77.2141 184.699 77.2935C184.302 77.3809 183.817 77.4285 183.245 77.4365C182.308 77.4523 181.462 77.2856 180.708 76.9361C179.953 76.5787 179.389 76.0386 179.016 75.3158C178.643 74.585 178.551 73.6677 178.742 72.5636L181.72 54.514Z" fill="#90D9FF"/>
<path d="M160.361 66.3326L158.574 77.1982H155.012L158.062 58.8983H161.481L160.981 61.8768H161.207C161.787 60.8999 162.577 60.1215 163.578 59.5417C164.587 58.9539 165.778 58.66 167.152 58.66C168.391 58.66 169.432 58.9221 170.274 59.4463C171.123 59.9626 171.723 60.7331 172.073 61.7577C172.43 62.7823 172.486 64.0491 172.239 65.5582L170.285 77.1982H166.723L168.594 65.9871C168.808 64.6607 168.633 63.6242 168.069 62.8776C167.513 62.123 166.628 61.7457 165.413 61.7457C164.587 61.7457 163.82 61.9245 163.113 62.2819C162.414 62.6393 161.823 63.1635 161.338 63.8545C160.861 64.5376 160.536 65.3636 160.361 66.3326Z" fill="#90D9FF"/>
<path d="M141.405 77.5675C139.61 77.5675 138.125 77.1823 136.949 76.4119C135.782 75.6335 134.964 74.5414 134.495 73.1355C134.027 71.7217 133.951 70.0657 134.269 68.1674C134.579 66.2929 135.202 64.6408 136.139 63.2112C137.077 61.7815 138.244 60.6655 139.642 59.8633C141.048 59.0611 142.601 58.66 144.3 58.66C145.333 58.66 146.306 58.8308 147.219 59.1723C148.141 59.5139 148.923 60.05 149.566 60.7807C150.21 61.5114 150.655 62.4606 150.901 63.6282C151.155 64.7878 151.147 66.1976 150.877 67.8576L150.674 69.1205H136.116L136.532 66.4518H147.589C147.755 65.5145 147.712 64.6845 147.458 63.9617C147.203 63.231 146.767 62.6552 146.147 62.2342C145.536 61.8133 144.765 61.6028 143.836 61.6028C142.883 61.6028 141.993 61.853 141.167 62.3534C140.341 62.8537 139.65 63.4931 139.094 64.2715C138.546 65.042 138.2 65.8362 138.057 66.6543L137.641 69.0967C137.434 70.431 137.47 71.5033 137.748 72.3135C138.034 73.1236 138.534 73.7114 139.249 74.0767C139.964 74.4421 140.857 74.6248 141.93 74.6248C142.621 74.6248 143.26 74.5295 143.848 74.3388C144.443 74.1403 144.972 73.8504 145.432 73.4691C145.893 73.0799 146.278 72.5954 146.588 72.0156L149.852 72.6232C149.415 73.6161 148.788 74.4858 147.97 75.2324C147.152 75.971 146.187 76.5469 145.075 76.9599C143.971 77.365 142.748 77.5675 141.405 77.5675Z" fill="#90D9FF"/>
<path d="M102.249 77.1982L105.299 58.8983H108.719L108.218 61.8768H108.445C109.001 60.8681 109.755 60.0818 110.708 59.5178C111.669 58.946 112.758 58.66 113.973 58.66C115.18 58.66 116.153 58.946 116.892 59.5178C117.638 60.0897 118.127 60.876 118.357 61.8768H118.548C119.136 60.8919 119.958 60.1096 121.014 59.5297C122.07 58.9499 123.258 58.66 124.576 58.66C126.22 58.66 127.483 59.1842 128.365 60.2327C129.254 61.2732 129.525 62.8379 129.175 64.9268L127.126 77.1982H123.552L125.553 65.2604C125.752 64.0134 125.561 63.1159 124.981 62.5678C124.401 62.0118 123.643 61.7338 122.706 61.7338C121.546 61.7338 120.585 62.0913 119.823 62.8061C119.06 63.513 118.591 64.4224 118.417 65.5344L116.451 77.1982H112.912L114.95 65.034C115.109 64.0332 114.926 63.235 114.402 62.6393C113.885 62.0357 113.131 61.7338 112.138 61.7338C111.463 61.7338 110.808 61.9125 110.172 62.27C109.545 62.6274 109.009 63.1198 108.564 63.7473C108.119 64.3748 107.829 65.0975 107.694 65.9156L105.812 77.1982H102.249Z" fill="#90D9FF"/>
<path d="M93.4623 69.609L95.2494 58.8983H98.8235L95.7736 77.1982H92.2709L92.807 74.0291H92.6164C92.0445 75.006 91.2343 75.8201 90.1859 76.4714C89.1454 77.1148 87.9381 77.4365 86.5641 77.4365C85.3885 77.4365 84.3917 77.1783 83.5736 76.6621C82.7635 76.1378 82.1876 75.3634 81.8461 74.3388C81.5046 73.3142 81.4569 72.0474 81.7032 70.5383L83.657 58.8983H87.2193L85.3488 70.1094C85.1503 71.3564 85.3369 72.3492 85.9088 73.0879C86.4807 73.8265 87.3146 74.1959 88.4107 74.1959C89.0779 74.1959 89.7689 74.0291 90.4838 73.6955C91.1986 73.3619 91.83 72.8575 92.3781 72.1824C92.9341 71.5073 93.2955 70.6495 93.4623 69.609Z" fill="#90D9FF"/>
<path d="M65.988 77.1982L69.038 58.8983H72.4811L71.9927 61.8053H72.1833C72.6757 60.8204 73.3945 60.046 74.3397 59.4821C75.2849 58.9102 76.2936 58.6243 77.3659 58.6243C77.5962 58.6243 77.8583 58.6322 78.1522 58.6481C78.4461 58.656 78.6843 58.6759 78.867 58.7077L78.2952 62.1151C78.1601 62.0754 77.9139 62.0317 77.5565 61.984C77.1991 61.9284 76.8297 61.9006 76.4485 61.9006C75.6145 61.9006 74.8401 62.0793 74.1253 62.4368C73.4104 62.7862 72.8107 63.2747 72.3262 63.9022C71.8417 64.5217 71.528 65.2286 71.385 66.0229L69.5503 77.1982H65.988Z" fill="#90D9FF"/>
<path d="M63.4199 58.8983L62.9553 61.7577H52.9595L53.4241 58.8983H63.4199ZM56.8196 54.514H60.3819L57.4987 71.825C57.3875 72.516 57.4074 73.0362 57.5583 73.3857C57.7092 73.7272 57.9395 73.9615 58.2493 74.0886C58.567 74.2078 58.9204 74.2673 59.3096 74.2673C59.5956 74.2673 59.8457 74.2475 60.0602 74.2078C60.2747 74.1681 60.4454 74.1363 60.5725 74.1125L60.7631 77.0552C60.5248 77.1346 60.2032 77.2141 59.7981 77.2935C59.401 77.3809 58.9165 77.4285 58.3446 77.4365C57.4074 77.4523 56.5615 77.2856 55.8069 76.9361C55.0524 76.5787 54.4884 76.0386 54.1151 75.3158C53.7418 74.585 53.6505 73.6677 53.8411 72.5636L56.8196 54.514Z" fill="#90D9FF"/>
<path d="M48.1873 63.366L44.8633 63.9379C44.7918 63.517 44.6449 63.1198 44.4225 62.7465C44.208 62.3732 43.8784 62.0714 43.4336 61.8411C42.9888 61.6028 42.3971 61.4836 41.6585 61.4836C40.6338 61.4836 39.7363 61.7179 38.9659 62.1866C38.2034 62.6552 37.7665 63.2509 37.6553 63.9737C37.5521 64.5614 37.6911 65.038 38.0723 65.4033C38.4536 65.7608 39.1247 66.0586 40.0858 66.2969L42.8975 66.9641C44.5178 67.3533 45.6774 67.9609 46.3764 68.7869C47.0833 69.605 47.3295 70.6693 47.1151 71.9799C46.9324 73.068 46.4558 74.033 45.6854 74.875C44.9229 75.7169 43.9459 76.3761 42.7545 76.8527C41.5631 77.3292 40.2367 77.5675 38.7753 77.5675C36.6943 77.5675 35.074 77.1267 33.9144 76.2451C32.7547 75.3634 32.159 74.1164 32.1273 72.5041L35.6538 71.9799C35.7173 72.8774 36.039 73.5565 36.6188 74.0172C37.2066 74.4699 38.0207 74.6963 39.0612 74.6963C40.2526 74.7042 41.2494 74.454 42.0516 73.9457C42.8538 73.4373 43.3105 72.8218 43.4217 72.099C43.517 71.5351 43.39 71.0665 43.0405 70.6932C42.6989 70.3198 42.0953 70.0339 41.2295 69.8353L38.2749 69.1562C36.6228 68.7671 35.4552 68.1396 34.7722 67.2738C34.0891 66.4081 33.8588 65.3199 34.0812 64.0094C34.2559 62.9371 34.7086 62.0039 35.4393 61.2096C36.178 60.4074 37.1113 59.7839 38.2391 59.3391C39.367 58.8864 40.614 58.66 41.9801 58.66C43.9737 58.66 45.4709 59.0889 46.4717 59.9467C47.4725 60.7966 48.0443 61.9364 48.1873 63.366Z" fill="#90D9FF"/>
<path d="M15.7956 66.3326L14.0085 77.1982H10.4462L13.4962 58.8983H16.9155L16.4151 61.8768H16.6415C17.2213 60.8999 18.0116 60.1215 19.0123 59.5417C20.0211 58.9539 21.2125 58.66 22.5865 58.66C23.8256 58.66 24.8661 58.9221 25.708 59.4463C26.5579 59.9626 27.1575 60.7331 27.507 61.7577C27.8644 62.7823 27.92 64.0491 27.6738 65.5582L25.7199 77.1982H22.1576L24.0281 65.9871C24.2426 64.6607 24.0678 63.6242 23.5039 62.8776C22.9479 62.123 22.0623 61.7457 20.8471 61.7457C20.0211 61.7457 19.2546 61.9245 18.5477 62.2819C17.8487 62.6393 17.257 63.1635 16.7725 63.8545C16.296 64.5376 15.9703 65.3636 15.7956 66.3326Z" fill="#90D9FF"/>
<path d="M7.73218 52.7983L3.68142 77.1982H0L4.05076 52.7983H7.73218Z" fill="#90D9FF"/>
</svg>
