<svg width="12" height="13" viewBox="0 0 12 13" fill="none" xmlns="http://www.w3.org/2000/svg">
<mask id="mask0_44_38" style="mask-type:alpha" maskUnits="userSpaceOnUse" x="0" y="0" width="12" height="13">
<rect y="0.5" width="12" height="12" fill="#D9D9D9"/>
</mask>
<g mask="url(#mask0_44_38)">
<path d="M4.8875 6.5C4.5875 6.5 4.3375 6.3875 4.1375 6.1625C3.9375 5.9375 3.85833 5.675 3.9 5.375L4.0625 4.15C4.12917 3.675 4.34583 3.28125 4.7125 2.96875C5.07917 2.65625 5.50833 2.5 6 2.5C6.49167 2.5 6.92083 2.65625 7.2875 2.96875C7.65417 3.28125 7.87083 3.675 7.9375 4.15L8.1 5.375C8.14167 5.675 8.0625 5.9375 7.8625 6.1625C7.6625 6.3875 7.4125 6.5 7.1125 6.5H4.8875ZM2 10.5V9.1C2 8.81667 2.07292 8.55625 2.21875 8.31875C2.36458 8.08125 2.55833 7.9 2.8 7.775C3.31667 7.51667 3.84167 7.32292 4.375 7.19375C4.90833 7.06458 5.45 7 6 7C6.55 7 7.09167 7.06458 7.625 7.19375C8.15833 7.32292 8.68333 7.51667 9.2 7.775C9.44167 7.9 9.63542 8.08125 9.78125 8.31875C9.92708 8.55625 10 8.81667 10 9.1V10.5H2Z" fill="#1C1B1F"/>
</g>
</svg>
