<svg width="12" height="13" viewBox="0 0 12 13" fill="none" xmlns="http://www.w3.org/2000/svg">
<mask id="mask0_44_32" style="mask-type:alpha" maskUnits="userSpaceOnUse" x="0" y="0" width="12" height="13">
<rect y="0.5" width="12" height="12" fill="#D9D9D9"/>
</mask>
<g mask="url(#mask0_44_32)">
<path d="M6 10C4.825 9.13333 3.94792 8.29167 3.36875 7.475C2.78958 6.65833 2.5 5.85833 2.5 5.075C2.5 4.48333 2.60625 3.96458 2.81875 3.51875C3.03125 3.07292 3.30417 2.7 3.6375 2.4C3.97083 2.1 4.34583 1.875 4.7625 1.725C5.17917 1.575 5.59167 1.5 6 1.5C6.40833 1.5 6.82083 1.575 7.2375 1.725C7.65417 1.875 8.02917 2.1 8.3625 2.4C8.69583 2.7 8.96875 3.07292 9.18125 3.51875C9.39375 3.96458 9.5 4.48333 9.5 5.075C9.5 5.85833 9.21042 6.65833 8.63125 7.475C8.05208 8.29167 7.175 9.13333 6 10ZM6 6C6.275 6 6.51042 5.90208 6.70625 5.70625C6.90208 5.51042 7 5.275 7 5C7 4.725 6.90208 4.48958 6.70625 4.29375C6.51042 4.09792 6.275 4 6 4C5.725 4 5.48958 4.09792 5.29375 4.29375C5.09792 4.48958 5 4.725 5 5C5 5.275 5.09792 5.51042 5.29375 5.70625C5.48958 5.90208 5.725 6 6 6ZM2.5 11.5V10.5H9.5V11.5H2.5Z" fill="#1C1B1F"/>
</g>
</svg>
